<svg width="424" height="385" viewBox="0 0 424 385" fill="none" xmlns="http://www.w3.org/2000/svg">
<circle cx="138" cy="251" r="134" fill="url(#paint0_linear_956_1040)" fill-opacity="0.2"/>
<path d="M52.3305 336.67C51.61 337.39 50.4406 337.391 49.731 336.66C35.0614 321.543 24.512 302.904 19.1082 282.524C13.5467 261.548 13.6333 239.475 19.3594 218.544C25.0855 197.613 36.2472 178.569 51.7116 163.345C67.176 148.122 86.3927 137.261 107.411 131.864C128.43 126.468 150.502 126.728 171.387 132.618C192.273 138.508 211.228 149.819 226.33 165.403C241.431 180.986 252.141 200.288 257.372 221.348C262.455 241.811 262.19 263.226 256.618 283.54C256.348 284.523 255.323 285.085 254.344 284.801V284.801C253.366 284.517 252.805 283.493 253.074 282.511C258.465 262.822 258.717 242.069 253.791 222.237C248.717 201.809 238.328 183.087 223.68 167.971C209.031 152.855 190.644 141.883 170.386 136.169C150.127 130.456 128.717 130.204 108.329 135.438C87.9409 140.673 69.3008 151.208 54.3003 165.975C39.2998 180.742 28.473 199.214 22.9186 219.517C17.3643 239.82 17.2802 261.232 22.6749 281.578C27.9119 301.329 38.1311 319.394 52.3406 334.05C53.0498 334.782 53.051 335.949 52.3305 336.67V336.67Z" fill="white" fill-opacity="0.1"/>
<g filter="url(#filter0_d_956_1040)">
<path d="M52.3305 336.67C51.61 337.39 50.4406 337.391 49.731 336.66C35.0641 321.546 24.516 302.911 19.1112 282.535C13.5487 261.564 13.6322 239.495 19.3532 218.566C25.0743 197.638 36.2293 178.595 51.6865 163.37C67.1437 148.145 86.3531 137.28 107.366 131.876C128.378 126.472 150.446 126.723 171.331 132.602C192.215 138.481 211.173 149.78 226.28 165.352C241.388 180.924 252.108 200.215 257.352 221.268C262.448 241.724 262.199 263.135 256.642 283.45C256.374 284.432 255.349 284.996 254.37 284.712V284.712C253.391 284.429 252.829 283.406 253.098 282.423C258.473 262.734 258.71 241.984 253.772 222.16C248.685 201.739 238.286 183.026 223.632 167.922C208.978 152.817 190.589 141.857 170.331 136.154C150.073 130.451 128.667 130.208 108.285 135.45C87.9025 140.691 69.2694 151.231 54.2759 165.999C39.2824 180.767 28.4621 199.239 22.9126 219.539C17.3632 239.84 17.2822 261.247 22.6779 281.589C27.9157 301.336 38.1337 319.397 52.3406 334.05C53.0498 334.782 53.051 335.949 52.3305 336.67V336.67Z" fill="#E58A2E"/>
</g>
<g filter="url(#filter1_d_956_1040)">
<path d="M44.669 343.331C43.884 344.116 42.6102 344.117 41.8371 343.32C29.0441 330.138 19.098 314.465 12.617 297.277C12.2254 296.238 12.7687 295.086 13.8131 294.71V294.71C14.8576 294.334 16.0077 294.877 16.3998 295.915C22.6797 312.547 32.305 327.714 44.68 340.477C45.4527 341.274 45.4539 342.546 44.669 343.331V343.331Z" fill="white" fill-opacity="0.9" shape-rendering="crispEdges"/>
</g>
<g filter="url(#filter2_d_956_1040)">
<path d="M10.5074 284.162C9.43518 284.449 8.33148 283.813 8.06028 282.736C3.57255 264.923 2.79524 246.378 5.77668 228.252C5.95685 227.156 7.00347 226.43 8.09601 226.627V226.627C9.18856 226.823 9.91326 227.868 9.7336 228.964C6.85633 246.507 7.60857 264.455 11.9437 281.696C12.2144 282.772 11.5797 283.874 10.5074 284.162V284.162Z" fill="white" fill-opacity="0.9" shape-rendering="crispEdges"/>
</g>
<g filter="url(#filter3_d_956_1040)">
<path d="M10.5075 215.838C9.43519 215.551 8.79737 214.448 9.10073 213.381C14.1207 195.71 22.7205 179.26 34.3655 165.054C35.0692 164.195 36.3387 164.089 37.1866 164.806V164.806C38.0345 165.523 38.1396 166.79 37.4363 167.649C26.1728 181.403 17.8504 197.322 12.9842 214.421C12.6803 215.489 11.5797 216.126 10.5075 215.838V215.838Z" fill="white" fill-opacity="0.9" shape-rendering="crispEdges"/>
</g>
<g filter="url(#filter4_d_956_1040)">
<path d="M44.669 156.669C43.884 155.884 43.883 154.61 44.6796 153.837C57.8622 141.044 73.5348 131.098 90.7231 124.617C91.7618 124.225 92.9139 124.769 93.29 125.813V125.813C93.666 126.858 93.1234 128.008 92.0849 128.4C75.4532 134.68 60.2862 144.305 47.5225 156.68C46.7255 157.453 45.4539 157.454 44.669 156.669V156.669Z" fill="white" fill-opacity="0.9" shape-rendering="crispEdges"/>
</g>
<g filter="url(#filter5_d_956_1040)">
<path d="M265.493 284.162C266.565 284.449 267.669 283.813 267.94 282.736C272.427 264.923 273.205 246.378 270.223 228.252C270.043 227.156 268.997 226.43 267.904 226.627V226.627C266.811 226.823 266.087 227.868 266.266 228.964C269.144 246.507 268.391 264.455 264.056 281.696C263.786 282.772 264.42 283.874 265.493 284.162V284.162Z" fill="white" fill-opacity="0.9" shape-rendering="crispEdges"/>
</g>
<g filter="url(#filter6_d_956_1040)">
<path d="M265.493 215.838C266.565 215.551 267.203 214.448 266.899 213.381C261.879 195.71 253.28 179.26 241.634 165.054C240.931 164.195 239.661 164.089 238.813 164.806V164.806C237.966 165.523 237.86 166.79 238.564 167.649C249.827 181.403 258.15 197.322 263.016 214.421C263.32 215.489 264.42 216.126 265.493 215.838V215.838Z" fill="white" fill-opacity="0.9" shape-rendering="crispEdges"/>
</g>
<g filter="url(#filter7_d_956_1040)">
<path d="M231.331 156.669C232.116 155.884 232.117 154.61 231.32 153.837C218.138 141.044 202.465 131.098 185.277 124.617C184.238 124.225 183.086 124.769 182.71 125.813V125.813C182.334 126.858 182.877 128.008 183.915 128.4C200.547 134.68 215.714 144.305 228.477 156.68C229.274 157.453 230.546 157.454 231.331 156.669V156.669Z" fill="white" fill-opacity="0.9" shape-rendering="crispEdges"/>
</g>
<g filter="url(#filter8_d_956_1040)">
<path d="M103.838 122.507C103.551 121.435 104.187 120.331 105.264 120.06C125.831 114.878 147.336 114.653 168.008 119.403C169.09 119.652 169.749 120.742 169.484 121.82V121.82C169.219 122.898 168.131 123.556 167.049 123.308C147.035 118.719 126.218 118.937 106.304 123.944C105.228 124.214 104.126 123.58 103.838 122.507V122.507Z" fill="white" fill-opacity="0.9" shape-rendering="crispEdges"/>
</g>
<circle cx="138" cy="261" r="43.75" stroke="url(#paint1_linear_956_1040)" stroke-opacity="0.2" stroke-width="2.5"/>
<path d="M122.789 268.3C118.014 268.3 115.889 263.975 115.889 259.675C115.889 255.375 118.014 251.075 122.789 251.075C127.564 251.075 129.689 255.375 129.689 259.675C129.689 263.975 127.564 268.3 122.789 268.3ZM122.789 265.15C125.164 265.15 126.064 262.75 126.064 259.675C126.064 256.6 125.189 254.225 122.789 254.225C120.414 254.225 119.514 256.6 119.514 259.675C119.514 262.75 120.414 265.15 122.789 265.15Z" fill="white" fill-opacity="0.3"/>
<path d="M138.592 268.3C133.517 268.3 131.392 264.4 131.392 259.7C131.392 254.65 134.242 251.075 139.167 251.075C141.192 251.075 142.892 251.75 144.092 252.8L142.492 255.525C141.592 254.675 140.642 254.225 139.167 254.225C136.717 254.225 134.992 256.3 134.992 258.95C134.992 259.075 134.992 259.175 135.017 259.3C135.792 258.175 137.467 257.15 139.292 257.15C142.292 257.15 144.992 259.025 144.992 262.575C144.992 265.825 142.392 268.3 138.592 268.3ZM138.392 265.15C140.317 265.15 141.367 263.85 141.367 262.7C141.367 260.95 139.867 260.2 138.292 260.2C137.042 260.2 135.817 260.775 135.017 261.775C135.167 263.375 136.067 265.15 138.392 265.15ZM153.401 268.3C150.501 268.3 148.401 267.35 146.976 265.8L148.951 263.325C150.076 264.5 151.626 265.15 153.376 265.15C155.351 265.15 156.476 264.025 156.476 262.675C156.476 261.2 155.376 260.2 153.476 260.2C152.101 260.2 150.976 260.6 149.976 261.55L147.501 260.875V251.325H158.951V254.45H151.051V258.525C151.851 257.725 153.201 257.125 154.726 257.125C157.551 257.125 160.076 259.15 160.076 262.525C160.076 266.05 157.426 268.3 153.401 268.3Z" fill="white" fill-opacity="0.9"/>
<g filter="url(#filter9_d_956_1040)">
<path d="M92.9594 316C93.3901 316 93.8032 316.169 94.1078 316.469C94.4124 316.769 94.5835 317.176 94.5835 317.6C94.5835 318.488 93.8608 319.2 92.9594 319.2C92.5287 319.2 92.1155 319.031 91.811 318.731C91.5064 318.431 91.3353 318.024 91.3353 317.6C91.3353 317.176 91.5064 316.769 91.811 316.469C92.1155 316.169 92.5287 316 92.9594 316ZM93.2761 326.232C94.4296 326.228 95.5823 326.294 96.7274 326.432C96.7761 324.256 96.5812 322.336 96.2077 321.6C96.1021 321.384 95.9559 321.2 95.8016 321.04L89.2483 326.576C90.3527 326.4 91.7413 326.232 93.2761 326.232ZM89.2726 328C89.3782 329.392 89.5893 330.8 89.9304 332H91.6114C91.3759 331.296 91.2053 330.472 91.0754 329.6C91.0754 329.6 92.9594 329.248 94.8434 329.6C94.7135 330.472 94.5429 331.296 94.3074 332H95.9884C96.3457 330.76 96.5568 329.288 96.6624 327.832C95.5388 327.698 94.4079 327.631 93.2761 327.632C91.7088 327.632 90.3445 327.8 89.2726 328ZM92.9594 320C92.9594 320 90.5232 320 89.7111 321.6C89.435 322.144 89.2564 323.32 89.1995 324.768L94.5186 320.272C93.7146 320 92.9594 320 92.9594 320ZM98.2947 318.936L97.3689 317.872L94.5186 320.28C94.9652 320.432 95.4362 320.672 95.8016 321.04L98.2947 318.936ZM100 327.064C99.9269 327.04 98.7575 326.664 96.7274 326.432C96.7193 326.888 96.6949 327.36 96.6624 327.832C98.4896 328.056 99.5371 328.4 99.5534 328.4L100 327.064ZM89.1995 324.768L86 327.472L86.7227 328.656C86.739 328.648 87.681 328.288 89.2726 328C89.1833 326.872 89.1589 325.76 89.1995 324.768Z" fill="#BFFA35"/>
</g>
<g filter="url(#filter10_d_956_1040)">
<path d="M124.909 318V319.5H127.364V321H124.909L123.273 322.5V324.75H121.636V322.5H120V328.5H121.636V326.25H123.273V328.5H125.727L127.364 330H133.909V327H135.545V329.25H138V321.75H135.545V324H133.909V321H129V319.5H131.455V318H124.909Z" fill="#E52E2E" fill-opacity="0.5" shape-rendering="crispEdges"/>
</g>
<g filter="url(#filter11_d_956_1040)">
<path d="M167.35 318C163.95 318 163.95 330 167.35 330C170.75 330 175 327.75 175 324C175 320.25 170.75 318 167.35 318ZM158 318.167H164.375C164.205 318.5 163.95 318.833 163.865 319.333C163.78 319.5 163.78 319.667 163.695 319.833H158V318.167ZM163.1 323.167H158V321.5H163.27C163.185 322 163.185 322.583 163.1 323.167ZM163.695 328.167C163.865 328.833 164.12 329.333 164.46 329.833H158.085V328.167H163.695ZM163.27 326.5H158V324.833H163.1C163.185 325.417 163.185 326 163.27 326.5Z" fill="#BFFA35"/>
</g>
<g filter="url(#filter12_d_956_1040)">
<path d="M207.632 325.556H205.263V327.111H207.632V325.556ZM210 331H195V323.222L201.316 317H209.211C209.42 317 209.621 317.082 209.769 317.228C209.917 317.374 210 317.571 210 317.778V331ZM201.971 318.556L197.234 323.222H208.421V318.556H201.971Z" fill="#E52E2E" fill-opacity="0.5" shape-rendering="crispEdges"/>
</g>
<rect x="240" y="294" width="32" height="32" rx="16" fill="white" fill-opacity="0.03"/>
<rect x="240.5" y="294.5" width="31" height="31" rx="15.5" stroke="url(#paint2_linear_956_1040)" stroke-opacity="0.25"/>
<path d="M260.048 314H258.466L253.594 307.322V314H251.956V304.662H253.636L258.41 311.13V304.662H260.048V314Z" fill="#BFFA35"/>
<path d="M70.396 302H64.6V300.884C67.708 298.532 68.932 297.5 68.932 296.336C68.932 295.496 68.2 295.124 67.468 295.124C66.532 295.124 65.824 295.496 65.308 296.072L64.492 295.16C65.2 294.296 66.328 293.876 67.456 293.876C69.004 293.876 70.348 294.74 70.348 296.336C70.348 297.824 68.992 299.144 66.856 300.764H70.396V302ZM74.8447 302.144C72.5887 302.144 71.6407 300.008 71.6407 298.004C71.6407 295.988 72.5887 293.876 74.8447 293.876C77.0887 293.876 78.0367 295.988 78.0367 298.004C78.0367 300.008 77.0887 302.144 74.8447 302.144ZM74.8447 300.896C76.1407 300.896 76.6087 299.528 76.6087 298.004C76.6087 296.468 76.1527 295.124 74.8447 295.124C73.5367 295.124 73.0687 296.468 73.0687 298.004C73.0687 299.528 73.5367 300.896 74.8447 300.896Z" fill="white" fill-opacity="0.5"/>
<path d="M54.556 260H53.152V258.188H49.336V257.06L52.624 251.996H54.556V256.952H55.624V258.188H54.556V260ZM53.152 256.952V253.256L50.716 256.952H53.152ZM59.6689 260.144C57.4129 260.144 56.4649 258.008 56.4649 256.004C56.4649 253.988 57.4129 251.876 59.6689 251.876C61.9129 251.876 62.8609 253.988 62.8609 256.004C62.8609 258.008 61.9129 260.144 59.6689 260.144ZM59.6689 258.896C60.9649 258.896 61.4329 257.528 61.4329 256.004C61.4329 254.468 60.9769 253.124 59.6689 253.124C58.3609 253.124 57.8929 254.468 57.8929 256.004C57.8929 257.528 58.3609 258.896 59.6689 258.896Z" fill="white" fill-opacity="0.5"/>
<path d="M60.804 213.144C58.452 213.144 57.504 211.236 57.504 209.004C57.504 206.7 58.716 204.876 61.032 204.876C62.016 204.876 62.784 205.224 63.324 205.764L62.676 206.82C62.256 206.388 61.788 206.124 61.032 206.124C59.688 206.124 58.92 207.36 58.92 208.764C58.92 208.836 58.92 208.908 58.92 208.992C59.292 208.452 60.132 207.864 61.068 207.864C62.508 207.864 63.756 208.752 63.756 210.456C63.756 211.932 62.592 213.144 60.804 213.144ZM60.72 211.896C61.776 211.896 62.328 211.14 62.328 210.504C62.328 209.52 61.56 209.076 60.696 209.076C60.012 209.076 59.34 209.436 58.944 210.012C59.016 210.876 59.496 211.896 60.72 211.896ZM67.915 213.144C65.659 213.144 64.711 211.008 64.711 209.004C64.711 206.988 65.659 204.876 67.915 204.876C70.159 204.876 71.107 206.988 71.107 209.004C71.107 211.008 70.159 213.144 67.915 213.144ZM67.915 211.896C69.211 211.896 69.679 210.528 69.679 209.004C69.679 207.468 69.223 206.124 67.915 206.124C66.607 206.124 66.139 207.468 66.139 209.004C66.139 210.528 66.607 211.896 67.915 211.896Z" fill="white" fill-opacity="0.5"/>
<path d="M91.576 182.144C89.932 182.144 88.504 181.376 88.504 179.936C88.504 178.928 89.332 178.196 90.304 177.872C89.404 177.584 88.636 176.984 88.636 175.976C88.636 174.488 90.16 173.876 91.576 173.876C92.992 173.876 94.516 174.488 94.516 175.976C94.516 176.984 93.748 177.584 92.848 177.872C93.82 178.196 94.648 178.928 94.648 179.936C94.648 181.376 93.208 182.144 91.576 182.144ZM91.576 177.308C92.068 177.224 93.088 176.936 93.088 176.192C93.088 175.508 92.44 175.124 91.576 175.124C90.712 175.124 90.064 175.508 90.064 176.192C90.064 176.936 91.096 177.224 91.576 177.308ZM91.576 180.896C92.464 180.896 93.22 180.464 93.22 179.756C93.22 178.928 92.068 178.568 91.576 178.496C91.072 178.568 89.932 178.928 89.932 179.756C89.932 180.464 90.664 180.896 91.576 180.896ZM98.8564 182.144C96.6004 182.144 95.6524 180.008 95.6524 178.004C95.6524 175.988 96.6004 173.876 98.8564 173.876C101.1 173.876 102.048 175.988 102.048 178.004C102.048 180.008 101.1 182.144 98.8564 182.144ZM98.8564 180.896C100.152 180.896 100.62 179.528 100.62 178.004C100.62 176.468 100.164 175.124 98.8564 175.124C97.5484 175.124 97.0804 176.468 97.0804 178.004C97.0804 179.528 97.5484 180.896 98.8564 180.896Z" fill="white" fill-opacity="0.5"/>
<path d="M131.022 169H129.618V162.808L128.31 164.176L127.494 163.324L129.798 160.996H131.022V169ZM135.581 169.144C133.325 169.144 132.377 167.008 132.377 165.004C132.377 162.988 133.325 160.876 135.581 160.876C137.825 160.876 138.773 162.988 138.773 165.004C138.773 167.008 137.825 169.144 135.581 169.144ZM135.581 167.896C136.877 167.896 137.345 166.528 137.345 165.004C137.345 163.468 136.889 162.124 135.581 162.124C134.273 162.124 133.805 163.468 133.805 165.004C133.805 166.528 134.273 167.896 135.581 167.896ZM142.987 169.144C140.731 169.144 139.783 167.008 139.783 165.004C139.783 162.988 140.731 160.876 142.987 160.876C145.231 160.876 146.179 162.988 146.179 165.004C146.179 167.008 145.231 169.144 142.987 169.144ZM142.987 167.896C144.283 167.896 144.751 166.528 144.751 165.004C144.751 163.468 144.295 162.124 142.987 162.124C141.679 162.124 141.211 163.468 141.211 165.004C141.211 166.528 141.679 167.896 142.987 167.896Z" fill="white" fill-opacity="0.5"/>
<path d="M213.536 260H212.132V253.808L210.824 255.176L210.008 254.324L212.312 251.996H213.536V260ZM218.191 260.144C215.839 260.144 214.891 258.236 214.891 256.004C214.891 253.7 216.103 251.876 218.419 251.876C219.403 251.876 220.171 252.224 220.711 252.764L220.063 253.82C219.643 253.388 219.175 253.124 218.419 253.124C217.075 253.124 216.307 254.36 216.307 255.764C216.307 255.836 216.307 255.908 216.307 255.992C216.679 255.452 217.519 254.864 218.455 254.864C219.895 254.864 221.143 255.752 221.143 257.456C221.143 258.932 219.979 260.144 218.191 260.144ZM218.107 258.896C219.163 258.896 219.715 258.14 219.715 257.504C219.715 256.52 218.947 256.076 218.083 256.076C217.399 256.076 216.727 256.436 216.331 257.012C216.403 257.876 216.883 258.896 218.107 258.896ZM225.302 260.144C223.046 260.144 222.098 258.008 222.098 256.004C222.098 253.988 223.046 251.876 225.302 251.876C227.546 251.876 228.494 253.988 228.494 256.004C228.494 258.008 227.546 260.144 225.302 260.144ZM225.302 258.896C226.598 258.896 227.066 257.528 227.066 256.004C227.066 254.468 226.61 253.124 225.302 253.124C223.994 253.124 223.526 254.468 223.526 256.004C223.526 257.528 223.994 258.896 225.302 258.896Z" fill="white" fill-opacity="0.5"/>
<path d="M201.782 213H200.378V206.808L199.07 208.176L198.254 207.324L200.558 204.996H201.782V213ZM208.189 213H206.785V211.188H202.969V210.06L206.257 204.996H208.189V209.952H209.257V211.188H208.189V213ZM206.785 209.952V206.256L204.349 209.952H206.785ZM213.302 213.144C211.046 213.144 210.098 211.008 210.098 209.004C210.098 206.988 211.046 204.876 213.302 204.876C215.546 204.876 216.494 206.988 216.494 209.004C216.494 211.008 215.546 213.144 213.302 213.144ZM213.302 211.896C214.598 211.896 215.066 210.528 215.066 209.004C215.066 207.468 214.61 206.124 213.302 206.124C211.994 206.124 211.526 207.468 211.526 209.004C211.526 210.528 211.994 211.896 213.302 211.896Z" fill="white" fill-opacity="0.5"/>
<path d="M171.606 182H170.202V175.808L168.894 177.176L168.078 176.324L170.382 173.996H171.606V182ZM178.853 182H173.057V180.884C176.165 178.532 177.389 177.5 177.389 176.336C177.389 175.496 176.657 175.124 175.925 175.124C174.989 175.124 174.281 175.496 173.765 176.072L172.949 175.16C173.657 174.296 174.785 173.876 175.913 173.876C177.461 173.876 178.805 174.74 178.805 176.336C178.805 177.824 177.449 179.144 175.313 180.764H178.853V182ZM183.302 182.144C181.046 182.144 180.098 180.008 180.098 178.004C180.098 175.988 181.046 173.876 183.302 173.876C185.546 173.876 186.494 175.988 186.494 178.004C186.494 180.008 185.546 182.144 183.302 182.144ZM183.302 180.896C184.598 180.896 185.066 179.528 185.066 178.004C185.066 176.468 184.61 175.124 183.302 175.124C181.994 175.124 181.526 176.468 181.526 178.004C181.526 179.528 181.994 180.896 183.302 180.896Z" fill="white" fill-opacity="0.5"/>
<path d="M45.3684 311L59 303.444M40.5439 302.356L48.2631 298.514M35.5 291L42.4737 287.949M30.8947 278.345L38.614 276.424M28.9649 266.819L36.6842 265.859M28 256.254H42.1228M91.6843 151.565L95.5439 159.249M104.228 146.763L106.158 154.446M115.807 143.881L117.737 151.565M127.386 141.96L128.351 149.644M138 141V155.567M28 244.214L36.6149 244.729M28.965 231.986L36.615 234.164M32.8247 218.539L40.4747 220.718M36.2019 208.103L43.3694 211.113M40.544 198.627L53 205.222M46.8505 189.023L54.0527 193.756M55.0177 178.458L60.5486 184.151M63.9604 169.814L69.5 176M73.3509 162.61L78.0462 168.784M82.0352 156.367L89.5 166.5M248 256.254H233.877M184.316 151.565L180.456 159.249M171.772 146.763L169.842 154.446M160.193 143.881L158.263 151.565M148.614 141.96L147.649 149.644M248 244.214L239.385 244.729M247.035 231.986L239.385 233M243.175 218.539L235.525 220.718M239.798 208.103L232.631 211.113M235.456 198.627L223 205.222M229.149 189.023L221.947 193.756M220.982 178.458L215.451 184.151M212.04 169.814L206.509 175.507M202.649 162.61L197.954 168.784M193.965 156.367L186 168" stroke="white" stroke-opacity="0.3" stroke-width="1.5" stroke-linecap="round"/>
<path d="M130.447 204.153C130.233 203.352 130.707 202.528 131.514 202.337C137.409 200.946 143.512 200.636 149.526 201.428C156.036 202.285 162.314 204.416 168 207.699C173.686 210.982 178.671 215.353 182.668 220.562C186.36 225.374 189.144 230.815 190.886 236.616C191.125 237.41 190.648 238.233 189.847 238.447V238.447C189.047 238.662 188.227 238.186 187.987 237.393C186.348 231.972 183.74 226.888 180.288 222.388C176.53 217.492 171.845 213.383 166.5 210.297C161.155 207.211 155.254 205.208 149.135 204.402C143.512 203.662 137.805 203.946 132.29 205.236C131.484 205.425 130.662 204.953 130.447 204.153V204.153Z" fill="white" fill-opacity="0.12"/>
<g filter="url(#filter13_d_956_1040)">
<path d="M130.447 204.153C130.233 203.352 130.707 202.528 131.514 202.337C138.694 200.642 146.167 200.556 153.396 202.093C160.624 203.629 167.416 206.747 173.286 211.216C173.945 211.718 174.043 212.665 173.522 213.308V213.308C173.001 213.952 172.058 214.049 171.397 213.549C165.896 209.377 159.537 206.465 152.772 205.027C146.006 203.589 139.013 203.663 132.29 205.236C131.484 205.425 130.662 204.953 130.447 204.153V204.153Z" fill="#BFFA35"/>
</g>
<g filter="url(#filter14_d_956_1040)">
<path d="M108.875 199.75C108.875 198.785 109.66 198 110.625 198H115C115.965 198 116.75 198.785 116.75 199.75V205H116.969C118.298 205 119.375 206.077 119.375 207.406V208.281C119.375 208.645 119.668 208.938 120.031 208.938C120.395 208.938 120.688 208.645 120.688 208.281V204.07C119.933 203.876 119.375 203.19 119.375 202.375V200.625L118.5 199.75C118.259 199.509 118.259 199.116 118.5 198.875C118.741 198.634 119.134 198.634 119.375 198.875L121.489 200.989C121.817 201.317 122 201.763 122 202.227V208.281C122 209.37 121.12 210.25 120.031 210.25C118.943 210.25 118.062 209.37 118.062 208.281V207.406C118.062 206.802 117.573 206.312 116.969 206.312H116.75V210.25C117.234 210.25 117.625 210.641 117.625 211.125C117.625 211.609 117.234 212 116.75 212H108.875C108.391 212 108 211.609 108 211.125C108 210.641 108.391 210.25 108.875 210.25V199.75ZM110.625 200.188V202.812C110.625 203.053 110.822 203.25 111.062 203.25H114.562C114.803 203.25 115 203.053 115 202.812V200.188C115 199.947 114.803 199.75 114.562 199.75H111.062C110.822 199.75 110.625 199.947 110.625 200.188Z" fill="#BFFA35"/>
</g>
<rect x="6" y="41" width="188" height="50" fill="url(#paint3_linear_956_1040)" fill-opacity="0.05"/>
<rect x="6.5" y="41.5" width="187" height="49" stroke="url(#paint4_linear_956_1040)" stroke-opacity="0.1"/>
<path d="M32.272 71.192C29.12 71.192 26.672 68.952 26.672 65.672C26.672 62.376 29.12 60.152 32.272 60.152C34.416 60.152 35.76 61.256 36.544 62.536L34.96 63.368C34.448 62.472 33.408 61.816 32.272 61.816C30.16 61.816 28.592 63.416 28.592 65.672C28.592 67.896 30.16 69.528 32.272 69.528C33.408 69.528 34.448 68.856 34.96 67.976L36.56 68.776C35.744 70.056 34.416 71.192 32.272 71.192ZM41.4983 71.192C39.0343 71.192 37.5303 69.336 37.5303 67.128C37.5303 64.904 39.0343 63.08 41.4983 63.08C43.9623 63.08 45.4663 64.904 45.4663 67.128C45.4663 69.336 43.9623 71.192 41.4983 71.192ZM41.4983 69.704C42.9383 69.704 43.7223 68.504 43.7223 67.128C43.7223 65.768 42.9383 64.568 41.4983 64.568C40.0743 64.568 39.2743 65.768 39.2743 67.128C39.2743 68.504 40.0743 69.704 41.4983 69.704ZM48.8618 71H47.1818V60.328H48.8618V71ZM54.5451 71.192C52.0811 71.192 50.5771 69.336 50.5771 67.128C50.5771 64.904 52.0811 63.08 54.5451 63.08C57.0091 63.08 58.5131 64.904 58.5131 67.128C58.5131 69.336 57.0091 71.192 54.5451 71.192ZM54.5451 69.704C55.9851 69.704 56.7691 68.504 56.7691 67.128C56.7691 65.768 55.9851 64.568 54.5451 64.568C53.1211 64.568 52.3211 65.768 52.3211 67.128C52.3211 68.504 53.1211 69.704 54.5451 69.704ZM61.9086 71H60.2286V63.272H61.9086V64.392C62.5006 63.656 63.4286 63.08 64.4206 63.08V64.744C64.2766 64.712 64.1166 64.696 63.9086 64.696C63.1886 64.696 62.2446 65.176 61.9086 65.736V71Z" fill="white" fill-opacity="0.4"/>
<rect x="6" y="87" width="188" height="4" fill="white" fill-opacity="0.05"/>
<circle cx="164" cy="66" r="11.5" fill="#E58A2E" stroke="white" stroke-width="3"/>
<path d="M17.92 16H14.04L9.12 9.24V16H5.08L5.08 2.66L9.24 2.66L13.88 8.98V2.66H17.92V16ZM24.12 16H20.08V2.66L24.12 2.66V16ZM33.1714 16H29.1314V6.18H25.5514V2.66L36.7314 2.66V6.18H33.1714V16ZM50.1059 16H45.5059L43.6659 11.8H42.2059V16H38.1659V2.66L45.2859 2.66C48.4059 2.66 50.0859 4.74 50.0859 7.24C50.0859 9.54 48.7459 10.76 47.6859 11.28L50.1059 16ZM44.6659 8.28C45.3459 8.28 45.9859 7.96 45.9859 7.22C45.9859 6.5 45.3459 6.18 44.6659 6.18L42.2059 6.18V8.28H44.6659ZM58.3006 16.24C54.1806 16.24 51.0006 13.44 51.0006 9.34C51.0006 5.24 54.1806 2.44 58.3006 2.44C62.4206 2.44 65.6006 5.24 65.6006 9.34C65.6006 13.44 62.4206 16.24 58.3006 16.24ZM58.3006 12.68C60.2406 12.68 61.5006 11.2 61.5006 9.34C61.5006 7.48 60.2406 6 58.3006 6C56.3606 6 55.1006 7.48 55.1006 9.34C55.1006 11.2 56.3606 12.68 58.3006 12.68Z" fill="url(#paint5_linear_956_1040)"/>
<rect x="236" y="41" width="188" height="50" fill="url(#paint6_linear_956_1040)" fill-opacity="0.05"/>
<rect x="236.5" y="41.5" width="187" height="49" stroke="url(#paint7_linear_956_1040)" stroke-opacity="0.1"/>
<circle cx="394" cy="66" r="11.5" fill="#0047FF" stroke="white" stroke-width="3"/>
<path d="M262.272 71.192C259.12 71.192 256.672 68.952 256.672 65.672C256.672 62.376 259.12 60.152 262.272 60.152C264.416 60.152 265.76 61.256 266.544 62.536L264.96 63.368C264.448 62.472 263.408 61.816 262.272 61.816C260.16 61.816 258.592 63.416 258.592 65.672C258.592 67.896 260.16 69.528 262.272 69.528C263.408 69.528 264.448 68.856 264.96 67.976L266.56 68.776C265.744 70.056 264.416 71.192 262.272 71.192ZM271.498 71.192C269.034 71.192 267.53 69.336 267.53 67.128C267.53 64.904 269.034 63.08 271.498 63.08C273.962 63.08 275.466 64.904 275.466 67.128C275.466 69.336 273.962 71.192 271.498 71.192ZM271.498 69.704C272.938 69.704 273.722 68.504 273.722 67.128C273.722 65.768 272.938 64.568 271.498 64.568C270.074 64.568 269.274 65.768 269.274 67.128C269.274 68.504 270.074 69.704 271.498 69.704ZM278.862 71H277.182V60.328H278.862V71ZM284.545 71.192C282.081 71.192 280.577 69.336 280.577 67.128C280.577 64.904 282.081 63.08 284.545 63.08C287.009 63.08 288.513 64.904 288.513 67.128C288.513 69.336 287.009 71.192 284.545 71.192ZM284.545 69.704C285.985 69.704 286.769 68.504 286.769 67.128C286.769 65.768 285.985 64.568 284.545 64.568C283.121 64.568 282.321 65.768 282.321 67.128C282.321 68.504 283.121 69.704 284.545 69.704ZM291.909 71H290.229V63.272H291.909V64.392C292.501 63.656 293.429 63.08 294.421 63.08V64.744C294.277 64.712 294.117 64.696 293.909 64.696C293.189 64.696 292.245 65.176 291.909 65.736V71Z" fill="white" fill-opacity="0.4"/>
<rect x="236" y="87" width="188" height="4" fill="white" fill-opacity="0.05"/>
<path d="M240.26 16.24C237.42 16.24 235.48 15.4 234.06 14.12L236.16 11.12C237.16 12.08 238.66 12.84 240.46 12.84C241.22 12.84 241.94 12.64 241.94 12.12C241.94 10.84 234.5 12.14 234.5 6.88C234.5 4.62 236.38 2.46 240.04 2.46C242.22 2.46 244.18 3.08 245.7 4.32L243.54 7.18C242.38 6.3 240.88 5.86 239.62 5.86C238.82 5.86 238.6 6.12 238.6 6.46C238.6 7.72 246.02 6.64 246.02 11.6C246.02 14.54 243.84 16.24 240.26 16.24ZM251.386 16H247.346V2.66L254.466 2.66C257.586 2.66 259.266 4.74 259.266 7.24C259.266 9.72 257.586 11.8 254.466 11.8H251.386V16ZM253.946 8.28C254.626 8.28 255.166 7.94 255.166 7.24C255.166 6.52 254.626 6.18 253.946 6.18H251.386V8.28H253.946ZM270.708 16H260.588V2.66L270.708 2.66V6.18H264.628V7.5H270.568V11.02L264.628 11.02V12.48L270.708 12.48V16ZM282.622 16H272.502V2.66L282.622 2.66V6.18H276.542V7.5H282.482V11.02H276.542V12.48H282.622V16ZM290.396 16H284.416V2.66L290.376 2.66C294.576 2.66 297.696 5.06 297.696 9.32C297.696 13.58 294.576 16 290.396 16ZM290.376 12.48C292.396 12.48 293.596 11 293.596 9.32C293.596 7.52 292.556 6.18 290.396 6.18H288.456V12.48H290.376Z" fill="url(#paint8_linear_956_1040)"/>
<defs>
<filter id="filter0_d_956_1040" x="11" y="124" width="254" height="217.209" filterUnits="userSpaceOnUse" color-interpolation-filters="sRGB">
<feFlood flood-opacity="0" result="BackgroundImageFix"/>
<feColorMatrix in="SourceAlpha" type="matrix" values="0 0 0 0 0 0 0 0 0 0 0 0 0 0 0 0 0 0 127 0" result="hardAlpha"/>
<feOffset/>
<feGaussianBlur stdDeviation="2"/>
<feComposite in2="hardAlpha" operator="out"/>
<feColorMatrix type="matrix" values="0 0 0 0 0.898039 0 0 0 0 0.541176 0 0 0 0 0.180392 0 0 0 0.75 0"/>
<feBlend mode="normal" in2="BackgroundImageFix" result="effect1_dropShadow_956_1040"/>
<feBlend mode="normal" in="SourceGraphic" in2="effect1_dropShadow_956_1040" result="shape"/>
</filter>
<filter id="filter1_d_956_1040" x="8.48926" y="290.591" width="40.7695" height="57.3281" filterUnits="userSpaceOnUse" color-interpolation-filters="sRGB">
<feFlood flood-opacity="0" result="BackgroundImageFix"/>
<feColorMatrix in="SourceAlpha" type="matrix" values="0 0 0 0 0 0 0 0 0 0 0 0 0 0 0 0 0 0 127 0" result="hardAlpha"/>
<feOffset/>
<feGaussianBlur stdDeviation="2"/>
<feComposite in2="hardAlpha" operator="out"/>
<feColorMatrix type="matrix" values="0 0 0 0 1 0 0 0 0 1 0 0 0 0 1 0 0 0 0.75 0"/>
<feBlend mode="normal" in2="BackgroundImageFix" result="effect1_dropShadow_956_1040"/>
<feBlend mode="normal" in="SourceGraphic" in2="effect1_dropShadow_956_1040" result="shape"/>
</filter>
<filter id="filter2_d_956_1040" x="0" y="222.595" width="16.0059" height="65.6357" filterUnits="userSpaceOnUse" color-interpolation-filters="sRGB">
<feFlood flood-opacity="0" result="BackgroundImageFix"/>
<feColorMatrix in="SourceAlpha" type="matrix" values="0 0 0 0 0 0 0 0 0 0 0 0 0 0 0 0 0 0 127 0" result="hardAlpha"/>
<feOffset/>
<feGaussianBlur stdDeviation="2"/>
<feComposite in2="hardAlpha" operator="out"/>
<feColorMatrix type="matrix" values="0 0 0 0 1 0 0 0 0 1 0 0 0 0 1 0 0 0 0.75 0"/>
<feBlend mode="normal" in2="BackgroundImageFix" result="effect1_dropShadow_956_1040"/>
<feBlend mode="normal" in="SourceGraphic" in2="effect1_dropShadow_956_1040" result="shape"/>
</filter>
<filter id="filter3_d_956_1040" x="5.02539" y="160.332" width="36.875" height="59.5752" filterUnits="userSpaceOnUse" color-interpolation-filters="sRGB">
<feFlood flood-opacity="0" result="BackgroundImageFix"/>
<feColorMatrix in="SourceAlpha" type="matrix" values="0 0 0 0 0 0 0 0 0 0 0 0 0 0 0 0 0 0 127 0" result="hardAlpha"/>
<feOffset/>
<feGaussianBlur stdDeviation="2"/>
<feComposite in2="hardAlpha" operator="out"/>
<feColorMatrix type="matrix" values="0 0 0 0 1 0 0 0 0 1 0 0 0 0 1 0 0 0 0.75 0"/>
<feBlend mode="normal" in2="BackgroundImageFix" result="effect1_dropShadow_956_1040"/>
<feBlend mode="normal" in="SourceGraphic" in2="effect1_dropShadow_956_1040" result="shape"/>
</filter>
<filter id="filter4_d_956_1040" x="40.0811" y="120.489" width="57.3281" height="40.7695" filterUnits="userSpaceOnUse" color-interpolation-filters="sRGB">
<feFlood flood-opacity="0" result="BackgroundImageFix"/>
<feColorMatrix in="SourceAlpha" type="matrix" values="0 0 0 0 0 0 0 0 0 0 0 0 0 0 0 0 0 0 127 0" result="hardAlpha"/>
<feOffset/>
<feGaussianBlur stdDeviation="2"/>
<feComposite in2="hardAlpha" operator="out"/>
<feColorMatrix type="matrix" values="0 0 0 0 1 0 0 0 0 1 0 0 0 0 1 0 0 0 0.75 0"/>
<feBlend mode="normal" in2="BackgroundImageFix" result="effect1_dropShadow_956_1040"/>
<feBlend mode="normal" in="SourceGraphic" in2="effect1_dropShadow_956_1040" result="shape"/>
</filter>
<filter id="filter5_d_956_1040" x="259.994" y="222.595" width="16.0059" height="65.6357" filterUnits="userSpaceOnUse" color-interpolation-filters="sRGB">
<feFlood flood-opacity="0" result="BackgroundImageFix"/>
<feColorMatrix in="SourceAlpha" type="matrix" values="0 0 0 0 0 0 0 0 0 0 0 0 0 0 0 0 0 0 127 0" result="hardAlpha"/>
<feOffset/>
<feGaussianBlur stdDeviation="2"/>
<feComposite in2="hardAlpha" operator="out"/>
<feColorMatrix type="matrix" values="0 0 0 0 1 0 0 0 0 1 0 0 0 0 1 0 0 0 0.75 0"/>
<feBlend mode="normal" in2="BackgroundImageFix" result="effect1_dropShadow_956_1040"/>
<feBlend mode="normal" in="SourceGraphic" in2="effect1_dropShadow_956_1040" result="shape"/>
</filter>
<filter id="filter6_d_956_1040" x="234.1" y="160.332" width="36.875" height="59.5752" filterUnits="userSpaceOnUse" color-interpolation-filters="sRGB">
<feFlood flood-opacity="0" result="BackgroundImageFix"/>
<feColorMatrix in="SourceAlpha" type="matrix" values="0 0 0 0 0 0 0 0 0 0 0 0 0 0 0 0 0 0 127 0" result="hardAlpha"/>
<feOffset/>
<feGaussianBlur stdDeviation="2"/>
<feComposite in2="hardAlpha" operator="out"/>
<feColorMatrix type="matrix" values="0 0 0 0 1 0 0 0 0 1 0 0 0 0 1 0 0 0 0.75 0"/>
<feBlend mode="normal" in2="BackgroundImageFix" result="effect1_dropShadow_956_1040"/>
<feBlend mode="normal" in="SourceGraphic" in2="effect1_dropShadow_956_1040" result="shape"/>
</filter>
<filter id="filter7_d_956_1040" x="178.591" y="120.489" width="57.3281" height="40.7695" filterUnits="userSpaceOnUse" color-interpolation-filters="sRGB">
<feFlood flood-opacity="0" result="BackgroundImageFix"/>
<feColorMatrix in="SourceAlpha" type="matrix" values="0 0 0 0 0 0 0 0 0 0 0 0 0 0 0 0 0 0 127 0" result="hardAlpha"/>
<feOffset/>
<feGaussianBlur stdDeviation="2"/>
<feComposite in2="hardAlpha" operator="out"/>
<feColorMatrix type="matrix" values="0 0 0 0 1 0 0 0 0 1 0 0 0 0 1 0 0 0 0.75 0"/>
<feBlend mode="normal" in2="BackgroundImageFix" result="effect1_dropShadow_956_1040"/>
<feBlend mode="normal" in="SourceGraphic" in2="effect1_dropShadow_956_1040" result="shape"/>
</filter>
<filter id="filter8_d_956_1040" x="99.7695" y="112" width="73.7734" height="16.0059" filterUnits="userSpaceOnUse" color-interpolation-filters="sRGB">
<feFlood flood-opacity="0" result="BackgroundImageFix"/>
<feColorMatrix in="SourceAlpha" type="matrix" values="0 0 0 0 0 0 0 0 0 0 0 0 0 0 0 0 0 0 127 0" result="hardAlpha"/>
<feOffset/>
<feGaussianBlur stdDeviation="2"/>
<feComposite in2="hardAlpha" operator="out"/>
<feColorMatrix type="matrix" values="0 0 0 0 1 0 0 0 0 1 0 0 0 0 1 0 0 0 0.75 0"/>
<feBlend mode="normal" in2="BackgroundImageFix" result="effect1_dropShadow_956_1040"/>
<feBlend mode="normal" in="SourceGraphic" in2="effect1_dropShadow_956_1040" result="shape"/>
</filter>
<filter id="filter9_d_956_1040" x="82" y="312" width="22" height="24" filterUnits="userSpaceOnUse" color-interpolation-filters="sRGB">
<feFlood flood-opacity="0" result="BackgroundImageFix"/>
<feColorMatrix in="SourceAlpha" type="matrix" values="0 0 0 0 0 0 0 0 0 0 0 0 0 0 0 0 0 0 127 0" result="hardAlpha"/>
<feOffset/>
<feGaussianBlur stdDeviation="2"/>
<feComposite in2="hardAlpha" operator="out"/>
<feColorMatrix type="matrix" values="0 0 0 0 0.74902 0 0 0 0 0.980392 0 0 0 0 0.207843 0 0 0 0.75 0"/>
<feBlend mode="normal" in2="BackgroundImageFix" result="effect1_dropShadow_956_1040"/>
<feBlend mode="normal" in="SourceGraphic" in2="effect1_dropShadow_956_1040" result="shape"/>
</filter>
<filter id="filter10_d_956_1040" x="116" y="314" width="26" height="20" filterUnits="userSpaceOnUse" color-interpolation-filters="sRGB">
<feFlood flood-opacity="0" result="BackgroundImageFix"/>
<feColorMatrix in="SourceAlpha" type="matrix" values="0 0 0 0 0 0 0 0 0 0 0 0 0 0 0 0 0 0 127 0" result="hardAlpha"/>
<feOffset/>
<feGaussianBlur stdDeviation="2"/>
<feComposite in2="hardAlpha" operator="out"/>
<feColorMatrix type="matrix" values="0 0 0 0 0.898039 0 0 0 0 0.180392 0 0 0 0 0.180392 0 0 0 0.35 0"/>
<feBlend mode="normal" in2="BackgroundImageFix" result="effect1_dropShadow_956_1040"/>
<feBlend mode="normal" in="SourceGraphic" in2="effect1_dropShadow_956_1040" result="shape"/>
</filter>
<filter id="filter11_d_956_1040" x="154" y="314" width="25" height="20" filterUnits="userSpaceOnUse" color-interpolation-filters="sRGB">
<feFlood flood-opacity="0" result="BackgroundImageFix"/>
<feColorMatrix in="SourceAlpha" type="matrix" values="0 0 0 0 0 0 0 0 0 0 0 0 0 0 0 0 0 0 127 0" result="hardAlpha"/>
<feOffset/>
<feGaussianBlur stdDeviation="2"/>
<feComposite in2="hardAlpha" operator="out"/>
<feColorMatrix type="matrix" values="0 0 0 0 0.74902 0 0 0 0 0.980392 0 0 0 0 0.207843 0 0 0 0.75 0"/>
<feBlend mode="normal" in2="BackgroundImageFix" result="effect1_dropShadow_956_1040"/>
<feBlend mode="normal" in="SourceGraphic" in2="effect1_dropShadow_956_1040" result="shape"/>
</filter>
<filter id="filter12_d_956_1040" x="191" y="313" width="23" height="22" filterUnits="userSpaceOnUse" color-interpolation-filters="sRGB">
<feFlood flood-opacity="0" result="BackgroundImageFix"/>
<feColorMatrix in="SourceAlpha" type="matrix" values="0 0 0 0 0 0 0 0 0 0 0 0 0 0 0 0 0 0 127 0" result="hardAlpha"/>
<feOffset/>
<feGaussianBlur stdDeviation="2"/>
<feComposite in2="hardAlpha" operator="out"/>
<feColorMatrix type="matrix" values="0 0 0 0 0.898039 0 0 0 0 0.180392 0 0 0 0 0.180392 0 0 0 0.35 0"/>
<feBlend mode="normal" in2="BackgroundImageFix" result="effect1_dropShadow_956_1040"/>
<feBlend mode="normal" in="SourceGraphic" in2="effect1_dropShadow_956_1040" result="shape"/>
</filter>
<filter id="filter13_d_956_1040" x="126.396" y="197" width="51.46" height="20.8672" filterUnits="userSpaceOnUse" color-interpolation-filters="sRGB">
<feFlood flood-opacity="0" result="BackgroundImageFix"/>
<feColorMatrix in="SourceAlpha" type="matrix" values="0 0 0 0 0 0 0 0 0 0 0 0 0 0 0 0 0 0 127 0" result="hardAlpha"/>
<feOffset/>
<feGaussianBlur stdDeviation="2"/>
<feComposite in2="hardAlpha" operator="out"/>
<feColorMatrix type="matrix" values="0 0 0 0 0.74902 0 0 0 0 0.980392 0 0 0 0 0.207843 0 0 0 0.75 0"/>
<feBlend mode="normal" in2="BackgroundImageFix" result="effect1_dropShadow_956_1040"/>
<feBlend mode="normal" in="SourceGraphic" in2="effect1_dropShadow_956_1040" result="shape"/>
</filter>
<filter id="filter14_d_956_1040" x="104" y="194" width="22" height="22" filterUnits="userSpaceOnUse" color-interpolation-filters="sRGB">
<feFlood flood-opacity="0" result="BackgroundImageFix"/>
<feColorMatrix in="SourceAlpha" type="matrix" values="0 0 0 0 0 0 0 0 0 0 0 0 0 0 0 0 0 0 127 0" result="hardAlpha"/>
<feOffset/>
<feGaussianBlur stdDeviation="2"/>
<feComposite in2="hardAlpha" operator="out"/>
<feColorMatrix type="matrix" values="0 0 0 0 0.74902 0 0 0 0 0.980392 0 0 0 0 0.207843 0 0 0 0.75 0"/>
<feBlend mode="normal" in2="BackgroundImageFix" result="effect1_dropShadow_956_1040"/>
<feBlend mode="normal" in="SourceGraphic" in2="effect1_dropShadow_956_1040" result="shape"/>
</filter>
<linearGradient id="paint0_linear_956_1040" x1="138" y1="219.5" x2="272" y2="485.5" gradientUnits="userSpaceOnUse">
<stop/>
<stop offset="0.395833" stop-opacity="0"/>
</linearGradient>
<linearGradient id="paint1_linear_956_1040" x1="138" y1="216" x2="138" y2="306" gradientUnits="userSpaceOnUse">
<stop stop-color="white"/>
<stop offset="0.572917" stop-color="white" stop-opacity="0"/>
</linearGradient>
<linearGradient id="paint2_linear_956_1040" x1="256" y1="294" x2="256" y2="326" gradientUnits="userSpaceOnUse">
<stop stop-color="white"/>
<stop offset="0.572917" stop-color="white" stop-opacity="0"/>
</linearGradient>
<linearGradient id="paint3_linear_956_1040" x1="102.089" y1="41.0001" x2="102.089" y2="89.3334" gradientUnits="userSpaceOnUse">
<stop stop-color="white"/>
<stop offset="1" stop-color="white" stop-opacity="0.1"/>
</linearGradient>
<linearGradient id="paint4_linear_956_1040" x1="102.089" y1="41.0001" x2="102.089" y2="71.0001" gradientUnits="userSpaceOnUse">
<stop offset="0.135768" stop-color="white"/>
<stop offset="1" stop-color="white" stop-opacity="0"/>
</linearGradient>
<linearGradient id="paint5_linear_956_1040" x1="35" y1="0" x2="35" y2="20" gradientUnits="userSpaceOnUse">
<stop stop-color="#BFFA35"/>
<stop offset="1" stop-color="#84AD25"/>
</linearGradient>
<linearGradient id="paint6_linear_956_1040" x1="332.089" y1="41.0001" x2="332.089" y2="89.3334" gradientUnits="userSpaceOnUse">
<stop stop-color="white"/>
<stop offset="1" stop-color="white" stop-opacity="0.1"/>
</linearGradient>
<linearGradient id="paint7_linear_956_1040" x1="332.089" y1="41.0001" x2="332.089" y2="71.0001" gradientUnits="userSpaceOnUse">
<stop offset="0.135768" stop-color="white"/>
<stop offset="1" stop-color="white" stop-opacity="0"/>
</linearGradient>
<linearGradient id="paint8_linear_956_1040" x1="266.5" y1="0" x2="266.5" y2="20" gradientUnits="userSpaceOnUse">
<stop stop-color="#BFFA35"/>
<stop offset="1" stop-color="#84AD25"/>
</linearGradient>
</defs>
</svg>
