<svg xmlns="http://www.w3.org/2000/svg" width="24.002" height="23.999" viewBox="0 0 24.002 23.999">
  <g id="bank" transform="translate(0.002 -0.001)">
    <path id="XMLID_4_" d="M1.09,9.422H2.181v7.247H4.363V9.422H8v7.247h2.182V9.422h3.636v7.247H16V9.422h3.636v7.247h2.182V9.422h1.091a1.086,1.086,0,0,0,.6-1.991L12.6.184a1.094,1.094,0,0,0-1.21,0L.485,7.431a1.086,1.086,0,0,0,.6,1.991Z" fill="#4ebe42"/>
    <path id="XMLID_5_" d="M22.91,260H1.092A1.1,1.1,0,0,0,0,261.1v2.933a1.1,1.1,0,0,0,1.091,1.1H22.91a1.1,1.1,0,0,0,1.091-1.1V261.1A1.1,1.1,0,0,0,22.91,260Z" transform="translate(-0.002 -241.133)" fill="#4ebe42"/>
  </g>
</svg>
