<svg xmlns="http://www.w3.org/2000/svg" xmlns:xlink="http://www.w3.org/1999/xlink" width="24" height="24" viewBox="0 0 24 24">
  <defs>
    <clipPath id="clip-path">
      <rect id="Rectangle_96" data-name="Rectangle 96" width="24" height="24" transform="translate(-1)" fill="none"/>
    </clipPath>
  </defs>
  <g id="cash" transform="translate(1)" clip-path="url(#clip-path)">
    <g id="cash-2" data-name="cash" transform="translate(-21.238 -0.002)">
      <g id="Group_133" data-name="Group 133" transform="translate(21.238 0.002)">
        <path id="Path_21" data-name="Path 21" d="M221.653,3.872,218.336.555a1.9,1.9,0,0,0-2.68,0l-3.317,3.317Z" transform="translate(-202.863 -0.002)" fill="#4ebe42"/>
        <path id="Path_22" data-name="Path 22" d="M111.2,15.625h-4.758a1.9,1.9,0,0,0-1.9,1.9v1.21h3.548Z" transform="translate(-100.426 -14.861)" fill="#4ebe42"/>
        <path id="Path_23" data-name="Path 23" d="M249.738,415.992h4.6a1.836,1.836,0,0,0,1.833-1.833v-1.235h-3.366Z" transform="translate(-238.461 -392.656)" fill="#4ebe42"/>
        <path id="Path_24" data-name="Path 24" d="M85.838,412.825l3.2,3.2a1.834,1.834,0,0,0,2.592,0l3.2-3.2Z" transform="translate(-82.673 -392.561)" fill="#4ebe42"/>
        <path id="Path_25" data-name="Path 25" d="M166.593,161.125a4.155,4.155,0,1,0,4.155,4.155A4.155,4.155,0,0,0,166.593,161.125Zm1.191,5.8a1.359,1.359,0,0,1-.691.446.193.193,0,0,0-.167.221v.368a.152.152,0,0,1-.162.171q-.2.007-.4,0a.158.158,0,0,1-.172-.181v-.27c0-.2-.01-.206-.2-.235a2.528,2.528,0,0,1-.706-.2c-.176-.083-.191-.127-.142-.314.039-.137.074-.274.118-.407.049-.157.093-.176.235-.1a2.305,2.305,0,0,0,.784.235.931.931,0,0,0,.515-.069.4.4,0,0,0,.093-.7,1.1,1.1,0,0,0-.294-.172,6.5,6.5,0,0,1-.8-.358,1.133,1.133,0,0,1-.642-1.083,1.2,1.2,0,0,1,.872-1.107c.216-.078.216-.074.216-.3v-.225c0-.167.034-.2.2-.2h.157c.358,0,.358,0,.358.358,0,.255,0,.255.255.294a2.188,2.188,0,0,1,.554.167.159.159,0,0,1,.1.216c-.044.152-.088.309-.137.461s-.093.167-.23.1a1.764,1.764,0,0,0-.877-.176.631.631,0,0,0-.235.049.334.334,0,0,0-.083.593,1.537,1.537,0,0,0,.382.216,7.374,7.374,0,0,1,.7.314,1.246,1.246,0,0,1,.4,1.885Z" transform="translate(-155.462 -153.214)" fill="#4ebe42"/>
        <circle id="Ellipse_4" data-name="Ellipse 4" cx="1.152" cy="1.152" r="1.152" transform="translate(16.055 11.126)" fill="#4ebe42"/>
        <circle id="Ellipse_5" data-name="Ellipse 5" cx="1.152" cy="1.152" r="1.152" transform="translate(3.898 11.126)" fill="#4ebe42"/>
        <path id="Path_26" data-name="Path 26" d="M41.327,107.625H23.144a1.908,1.908,0,0,0-1.906,1.9v9.788a1.908,1.908,0,0,0,1.906,1.9H41.332a1.908,1.908,0,0,0,1.906-1.9v-9.788A1.912,1.912,0,0,0,41.327,107.625Zm.281,9.866a1.9,1.9,0,0,0-.478-.059,1.928,1.928,0,0,0-1.931,1.926,1.973,1.973,0,0,0,.015.241H25.1a2.051,2.051,0,0,0,.034-.354,1.934,1.934,0,0,0-2.27-1.9V111.5a1.9,1.9,0,0,0,.34.029,1.928,1.928,0,0,0,1.931-1.926,1.659,1.659,0,0,0-.034-.354H39.259a1.876,1.876,0,0,0-.059.471,1.935,1.935,0,0,0,2.408,1.867Z" transform="translate(-21.238 -102.353)" fill="#4ebe42"/>
      </g>
    </g>
  </g>
</svg>
