<svg xmlns="http://www.w3.org/2000/svg" xmlns:xlink="http://www.w3.org/1999/xlink" width="24" height="23.999" viewBox="0 0 24 23.999">
  <defs>
    <clipPath id="clip-path">
      <rect id="Rectangle_95" data-name="Rectangle 95" width="24" height="23.999" transform="translate(0 -3)" fill="none"/>
    </clipPath>
  </defs>
  <g id="car" transform="translate(0 3)" clip-path="url(#clip-path)">
    <g id="car-2" data-name="car" transform="translate(0 -58.626)">
      <path id="Path_27" data-name="Path 27" d="M23.48,63.965H21.72a.512.512,0,0,0-.36.149l-.376.371a19.379,19.379,0,0,0-2.769-4.546,3.428,3.428,0,0,0-2.692-1.313H8.476a3.427,3.427,0,0,0-2.692,1.313,18.934,18.934,0,0,0-2.775,4.54l-.37-.365a.512.512,0,0,0-.36-.149H.52A.528.528,0,0,0,0,64.5v1.239a.529.529,0,0,0,.487.534L2.3,66.39a12.2,12.2,0,0,0-.487,3.776,4.927,4.927,0,0,0,.8,3.123v2.887a.442.442,0,0,0,.435.448h2a.442.442,0,0,0,.436-.448V74.384H18.52v1.793a.442.442,0,0,0,.435.448h2a.442.442,0,0,0,.435-.448V73.29a4.928,4.928,0,0,0,.8-3.123,12.2,12.2,0,0,0-.49-3.777l1.809-.117A.529.529,0,0,0,24,65.739V64.5a.528.528,0,0,0-.52-.535ZM7.271,61.19a1.536,1.536,0,0,1,1.205-.59h7.047a1.536,1.536,0,0,1,1.206.588,18.7,18.7,0,0,1,2.061,3.145H5.2A18.814,18.814,0,0,1,7.271,61.19Zm-1.481,11c-1,0-1.8-.335-1.8-1.148s.293-1.472,1.29-1.472,2.32.659,2.32,1.472-.813,1.15-1.81,1.15Zm8.1-.169H10.108a1.051,1.051,0,0,1-1.034-1.065.294.294,0,0,1,.29-.3h5.273a.294.294,0,0,1,.29.3,1.051,1.051,0,0,1-1.035,1.066Zm4.319.169c-1,0-1.8-.335-1.8-1.148s1.323-1.472,2.319-1.472,1.29.659,1.29,1.472-.811,1.15-1.807,1.15Z" fill="#00c2ff"/>
    </g>
  </g>
</svg>
