<svg xmlns="http://www.w3.org/2000/svg" xmlns:xlink="http://www.w3.org/1999/xlink" width="24" height="24.001" viewBox="0 0 24 24.001">
  <defs>
    <clipPath id="clip-path">
      <rect id="Rectangle_99" data-name="Rectangle 99" width="24" height="24.001" transform="translate(0 -2)" fill="none"/>
    </clipPath>
  </defs>
  <g id="message" transform="translate(0 2)" clip-path="url(#clip-path)">
    <path id="message-2" data-name="message" d="M3.255,8.013A3.691,3.691,0,0,0,1.5,11.143V18a6.073,6.073,0,0,0,6.144,6H18.179a3.823,3.823,0,0,0,3.205-1.714H7.644A4.338,4.338,0,0,1,3.256,18ZM4.426,8.7v8.731a3.755,3.755,0,0,0,3.588,3.708l.216.006H21.695a3.766,3.766,0,0,0,3.8-3.5l.006-.211V8.7L15.369,13.9a.9.9,0,0,1-.818,0ZM21.695,4H8.23A3.789,3.789,0,0,0,4.537,6.818L14.96,12.174,25.383,6.818a3.783,3.783,0,0,0-3.471-2.812Z" transform="translate(-1.5 -4)" fill="#fd0"/>
  </g>
</svg>
