<svg xmlns="http://www.w3.org/2000/svg" width="24" height="24" viewBox="0 0 24 24">
  <g id="phone" transform="translate(-2 -2)">
    <path id="Path_18" data-name="Path 18" d="M24,14A12,12,0,0,0,12,2V4.4A9.6,9.6,0,0,1,21.6,14Z" transform="translate(2)" fill="#f60"/>
    <path id="Path_19" data-name="Path 19" d="M2,11.2v-6A1.2,1.2,0,0,1,3.2,4h6a1.2,1.2,0,0,1,1.2,1.2V10a1.2,1.2,0,0,1-1.2,1.2H6.8a9.6,9.6,0,0,0,9.6,9.6V18.4a1.2,1.2,0,0,1,1.2-1.2h4.8a1.2,1.2,0,0,1,1.2,1.2v6a1.2,1.2,0,0,1-1.2,1.2h-6A14.4,14.4,0,0,1,2,11.2Z" transform="translate(0 0.4)" fill="#f60"/>
    <path id="Path_20" data-name="Path 20" d="M18.652,10.445A7.2,7.2,0,0,1,19.2,13.2H17.04A5.039,5.039,0,0,0,12,8.16V6a7.2,7.2,0,0,1,6.652,4.445Z" transform="translate(2 0.8)" fill="#f60"/>
  </g>
</svg>
