<svg xmlns="http://www.w3.org/2000/svg" xmlns:xlink="http://www.w3.org/1999/xlink" width="24" height="24" viewBox="0 0 24 24">
  <defs>
    <clipPath id="clip-path">
      <rect id="Rectangle_98" data-name="Rectangle 98" width="24" height="24" transform="translate(-6)" fill="none"/>
    </clipPath>
  </defs>
  <g id="primary" transform="translate(6)" clip-path="url(#clip-path)">
    <g id="info-svgrepo-com" transform="translate(-31.139 -1)">
      <path id="Path_13" data-name="Path 13" d="M42.78,22.306l-.38,1.426q-1.708.619-2.725.943A7.771,7.771,0,0,1,37.312,25a5,5,0,0,1-3.215-.927,2.9,2.9,0,0,1-1.147-2.354,7.664,7.664,0,0,1,.085-1.133,12.863,12.863,0,0,1,.277-1.308l1.423-4.628q.19-.665.32-1.26a5.051,5.051,0,0,0,.129-1.085,1.59,1.59,0,0,0-.4-1.237,2.4,2.4,0,0,0-1.522-.349,4.313,4.313,0,0,0-1.131.159c-.387.1-.718.207-1,.3l.38-1.427q1.4-.523,2.675-.9A8.644,8.644,0,0,1,36.6,8.478,4.875,4.875,0,0,1,39.78,9.4a2.92,2.92,0,0,1,1.112,2.369c0,.2-.024.555-.077,1.062a6.593,6.593,0,0,1-.285,1.4L39.113,18.84A11.406,11.406,0,0,0,38.8,20.1a6.028,6.028,0,0,0-.139,1.077,1.48,1.48,0,0,0,.446,1.252,2.693,2.693,0,0,0,1.55.333,4.841,4.841,0,0,0,1.172-.166,6.956,6.956,0,0,0,.951-.29Zm.359-18.392a2.6,2.6,0,0,1-.991,2.053,3.543,3.543,0,0,1-2.386.849,3.584,3.584,0,0,1-2.4-.849,2.613,2.613,0,0,1,0-4.113,3.774,3.774,0,0,1,4.785,0,2.629,2.629,0,0,1,.992,2.061Z" fill="#7289d9"/>
    </g>
  </g>
</svg>
