<svg xmlns="http://www.w3.org/2000/svg" width="24" height="24" viewBox="0 0 24 24">
  <path id="success" d="M60.149,47.982A12,12,0,1,0,71.98,59.815,12,12,0,0,0,60.149,47.982Zm-.969,11.1,2.974-3.4a.923.923,0,1,1,1.39,1.215L60.57,60.3a.923.923,0,1,1-1.39-1.215Zm-2.242,5.241a.923.923,0,0,1-1.3,0l-2.766-2.769a.923.923,0,0,1,1.306-1.3l2.769,2.769a.923.923,0,0,1-.009,1.3Zm10.2-7.43-6.454,7.384a.923.923,0,0,1-.664.316h-.031a.923.923,0,0,1-.653-.271L56.57,61.553a.923.923,0,0,1,1.306-1.3l1.719,1.721a.462.462,0,0,0,.674-.023l5.481-6.269A.923.923,0,1,1,67.14,56.9Z" transform="translate(-47.981 -47.981)" fill="#00ffcb"/>
</svg>
