<svg xmlns="http://www.w3.org/2000/svg" xmlns:xlink="http://www.w3.org/1999/xlink" width="24" height="24" viewBox="0 0 24 24">
  <defs>
    <clipPath id="clip-path">
      <rect id="Rectangle_101" data-name="Rectangle 101" width="24" height="24" transform="translate(0 -1)" fill="none"/>
    </clipPath>
  </defs>
  <g id="warning" transform="translate(0 1)" clip-path="url(#clip-path)">
    <g id="warning-svgrepo-com" transform="translate(0 -22.643)">
      <path id="Path_17" data-name="Path 17" d="M23.52,39.19,15.112,24.467a3.559,3.559,0,0,0-6.215,0L.484,39.19a3.634,3.634,0,0,0,3.107,5.453H20.383A3.652,3.652,0,0,0,23.52,39.19ZM12,41.377a1.354,1.354,0,1,1,1.317-1.354A1.354,1.354,0,0,1,12,41.377Zm1.22-8.75c-.059,1.049-.124,2.093-.183,3.141-.03.34-.03.649-.03.984A1.013,1.013,0,0,1,12,37.736a.991.991,0,0,1-1.008-.954c-.089-1.633-.183-3.236-.272-4.869-.03-.429-.059-.864-.094-1.293a1.469,1.469,0,0,1,1.037-1.478,1.339,1.339,0,0,1,1.556.769,1.629,1.629,0,0,1,.124.679C13.313,31.274,13.249,31.953,13.22,32.627Z" fill="#ffc107"/>
    </g>
  </g>
</svg>
